# xmcd
#
# Track frame offsets:
#	150
#	16700
#	32310
#	50840
#	82230
#	100300
#	117602
#	148192
#	169787
#	197817
#	220952
#	253167
#
# Disc length: 3908 seconds
#
# Revision: 0
# Processed by: cddbd v1.5.1PL0 Copyright (c) Steve Scherf et al.
# Submitted via: EasyCDDAExtractor 8.0.2.1
#
DISCID=b10f420c
DTITLE=Aura - The Source Of Trance
DYEAR=2001
DGENRE=Trance
TTITLE0=Destination Skyline
TTITLE1=Make You Believe
TTITLE2=Le Marche De La Luna
TTITLE3=Planet Love
TTITLE4=Point Break
TTITLE5=Never
TTITLE6=Song Of The Siren
TTITLE7=Viva La Musica
TTITLE8=2 Eyars Of Living (Aura Floor Mix)
TTITLE9=Himalaya
TTITLE10=Cry (Aura Floor Mix)
TTITLE11=Destination Skyline (Lightwork Mix)
EXTD=
EXTT0=
EXTT1=
EXTT2=
EXTT3=
EXTT4=
EXTT5=
EXTT6=
EXTT7=
EXTT8=
EXTT9=
EXTT10=
EXTT11=
PLAYORDER=
